<svg width="1400" height="3519" viewBox="0 0 1400 3519" fill="none" xmlns="http://www.w3.org/2000/svg">
<g clip-path="url(#clip0_5_77)">
<rect width="1400" height="3519" fill="white"/>
<rect width="1400" height="3519" fill="#D9D9D9"/>
<line x1="114.5" y1="51" x2="114.5" y2="2.40413e-07" stroke="#957F56" stroke-width="11"/>
<line x1="244" y1="119.5" x2="304" y2="119.5" stroke="#957F56" stroke-width="11"/>
<line y1="-5.5" x2="916" y2="-5.5" transform="matrix(1 0 0 -1 304 114)" stroke="#957F56" stroke-width="11"/>
<line y1="-5.5" x2="938" y2="-5.5" transform="matrix(1 0 0 -1 231 567)" stroke="#957F56" stroke-width="11"/>
<line y1="-5.5" x2="873" y2="-5.5" transform="matrix(1 0 0 -1 294 882)" stroke="#957F56" stroke-width="11"/>
<line y1="-5.5" x2="862" y2="-5.5" transform="matrix(1 0 0 -1 214 1434)" stroke="#957F56" stroke-width="11"/>
<line y1="-5.5" x2="936" y2="-5.5" transform="matrix(1 0 0 -1 294 2952)" stroke="#957F56" stroke-width="11"/>
<line x1="234" y1="77" x2="1158" y2="77" stroke="#3D3D3D" stroke-width="14"/>
<line x1="166" y1="163" x2="166" y2="471" stroke="#3D3D3D" stroke-width="14"/>
<line x1="1284" y1="3.0598e-07" x2="1284" y2="57" stroke="#3D3D3D" stroke-width="14"/>
<line x1="116" y1="940" x2="116" y2="1333" stroke="#3D3D3D" stroke-width="14"/>
<line x1="1284" y1="1481" x2="1284" y2="2822" stroke="#3D3D3D" stroke-width="14"/>
<line x1="1204" y1="636" x2="1204" y2="784" stroke="#3D3D3D" stroke-width="14"/>
<line x1="294" y1="532" x2="1163" y2="532" stroke="#3D3D3D" stroke-width="14"/>
<line x1="174" y1="847" x2="1076" y2="847" stroke="#3D3D3D" stroke-width="14"/>
<line x1="244" y1="1392" x2="1218" y2="1392" stroke="#3D3D3D" stroke-width="14"/>
<line x1="140" y1="2881" x2="1156" y2="2881" stroke="#3D3D3D" stroke-width="14"/>
<path d="M1266 114L1266.65 114.008C1279.94 114.345 1290.66 125.06 1290.99 138.354L1291 139L1291 249L1280 249L1280 139C1280 131.268 1273.73 125 1266 125L1216 125L1216 114L1266 114Z" fill="#957F56"/>
<path d="M1291 553L1290.99 553.646C1290.66 566.94 1279.94 577.655 1266.65 577.992L1266 578H1156V567H1266C1273.73 567 1280 560.732 1280 553V503H1291V553Z" fill="#957F56"/>
<path d="M1186 882L1186.65 882.008C1199.94 882.345 1210.66 893.06 1210.99 906.354L1211 907L1211 1017L1200 1017L1200 907C1200 899.268 1193.73 893 1186 893L1136 893L1136 882L1186 882Z" fill="#957F56"/>
<path d="M1211 1420L1210.99 1420.65C1210.66 1433.94 1199.94 1444.66 1186.65 1444.99L1186 1445H1076V1434H1186C1193.73 1434 1200 1427.73 1200 1420V1370H1211V1420Z" fill="#957F56"/>
<path d="M109 100L109.008 100.646C109.345 113.94 120.06 124.655 133.354 124.992L134 125L244 125L244 114L134 114C126.268 114 120 107.732 120 100L120 50L109 50L109 100Z" fill="#957F56"/>
<path d="M184 567L183.354 567.008C170.06 567.345 159.345 578.06 159.008 591.354L159 592L159 702L170 702L170 592C170 584.268 176.268 578 184 578L234 578L234 567L184 567Z" fill="#957F56"/>
<path d="M184 1434L183.354 1434.01C170.06 1434.34 159.345 1445.06 159.008 1458.35L159 1459L159 1569L170 1569L170 1459C170 1451.27 176.268 1445 184 1445L234 1445L234 1434L184 1434Z" fill="#957F56"/>
<path d="M1266 2952L1266.65 2952.01C1279.94 2952.34 1290.66 2963.06 1290.99 2976.35L1291 2977L1291 3087L1280 3087L1280 2977C1280 2969.27 1273.73 2963 1266 2963L1216 2963L1216 2952L1266 2952Z" fill="#957F56"/>
<path d="M159 2938L159.008 2938.65C159.345 2951.94 170.06 2962.66 183.354 2962.99L184 2963L294 2963L294 2952L184 2952C176.268 2952 170 2945.73 170 2938L170 2888L159 2888L159 2938Z" fill="#957F56"/>
<path d="M159 868L159.008 868.646C159.345 881.94 170.06 892.655 183.354 892.992L184 893L294 893L294 882L184 882C176.268 882 170 875.732 170 868L170 818L159 818L159 868Z" fill="#957F56"/>
<path d="M159 514L159.008 514.646C159.345 527.94 170.06 538.655 183.354 538.992L184 539L294 539L294 525L184 525C177.925 525 173 520.075 173 514L173 464L159 464L159 514Z" fill="#3D3D3D"/>
<path d="M134 840L133.354 840.008C120.06 840.345 109.345 851.06 109.008 864.354L109 865L109 975L123 975L123 865C123 858.925 127.925 854 134 854L184 854L184 840L134 840Z" fill="#3D3D3D"/>
<path d="M109 1374L109.008 1374.65C109.345 1387.94 120.06 1398.66 133.354 1398.99L134 1399L244 1399L244 1385L134 1385C127.925 1385 123 1380.08 123 1374L123 1324L109 1324L109 1374Z" fill="#3D3D3D"/>
<path d="M184 70L183.354 70.0078C170.06 70.3448 159.345 81.0602 159.008 94.3545L159 95L159 205L173 205L173 95C173 88.9249 177.925 84 184 84L234 84L234 70L184 70Z" fill="#3D3D3D"/>
<path d="M1186 525L1186.65 525.008C1199.94 525.345 1210.66 536.06 1210.99 549.354L1211 550L1211 660L1197 660L1197 550C1197 543.925 1192.08 539 1186 539L1136 539L1136 525L1186 525Z" fill="#3D3D3D"/>
<path d="M1211 829L1210.99 829.646C1210.66 842.94 1199.94 853.655 1186.65 853.992L1186 854H1076V840H1186C1192.08 840 1197 835.075 1197 829V779L1211 779V829Z" fill="#3D3D3D"/>
<path d="M1266 1385L1266.65 1385.01C1279.94 1385.34 1290.66 1396.06 1290.99 1409.35L1291 1410L1291 1520L1277 1520L1277 1410C1277 1403.92 1272.08 1399 1266 1399L1216 1399L1216 1385L1266 1385Z" fill="#3D3D3D"/>
<path d="M1291 2863L1290.99 2863.65C1290.66 2876.94 1279.94 2887.66 1266.65 2887.99L1266 2888H1156V2874H1266C1272.08 2874 1277 2869.08 1277 2863V2813L1291 2813V2863Z" fill="#3D3D3D"/>
<line y1="-5.5" x2="309" y2="-5.5" transform="matrix(-4.37114e-08 1 1 4.37114e-08 1291 245)" stroke="#957F56" stroke-width="11"/>
<line y1="-5.5" x2="375" y2="-5.5" transform="matrix(-4.37114e-08 1 1 4.37114e-08 1211 1006)" stroke="#957F56" stroke-width="11"/>
<line y1="-5.5" x2="1326" y2="-5.5" transform="matrix(-4.37114e-08 1 1 4.37114e-08 170 1569)" stroke="#957F56" stroke-width="11"/>
<line y1="-5.5" x2="174" y2="-5.5" transform="matrix(-4.37114e-08 1 1 4.37114e-08 170 682)" stroke="#957F56" stroke-width="11"/>
<path d="M1291 59L1290.99 59.6455C1290.66 72.9398 1279.94 83.6553 1266.65 83.9922L1266 84H1156V70H1266C1272.08 70 1277 65.0751 1277 59V32H1291V59Z" fill="#3D3D3D"/>
<line y1="-5.5" x2="433" y2="-5.5" transform="matrix(-4.37114e-08 1 1 4.37114e-08 1291 3086)" stroke="#957F56" stroke-width="11"/>
<line x1="116" y1="3009" x2="116" y2="3519" stroke="#3D3D3D" stroke-width="14"/>
<path d="M134 2874L133.354 2874.01C120.06 2874.34 109.345 2885.06 109.008 2898.35L109 2899L109 3009L123 3009L123 2899C123 2892.92 127.925 2888 134 2888L184 2888L184 2874L134 2874Z" fill="#3D3D3D"/>
</g>
<defs>
<clipPath id="clip0_5_77">
<rect width="1400" height="3519" fill="white"/>
</clipPath>
</defs>
</svg>
